<?xml version="1.0" encoding="UTF-8"?>
<!DOCTYPE svg PUBLIC "-//W3C//DTD SVG 1.1//EN" "http://www.w3.org/Graphics/SVG/1.1/DTD/svg11.dtd">
<svg xmlns="http://www.w3.org/2000/svg" xml:space="preserve" width="28mm" height="27.9884mm" version="1.1" style="shape-rendering:geometricPrecision; text-rendering:geometricPrecision; image-rendering:optimizeQuality; fill-rule:evenodd; clip-rule:evenodd"
viewBox="0 0 198.29 198.21" fill="#22795D"
 xmlns:xlink="http://www.w3.org/1999/xlink"
 xmlns:xodm="http://www.corel.com/coreldraw/odm/2003">
 <defs>
 </defs>
 <g id="Слой_x0020_1">
  <metadata id="CorelCorpID_0Corel-Layer"/>
  <path class="fil0" d="M44.44 0l-30.88 0c-7.47,0 -13.55,6.08 -13.55,13.55l0 30.84c0,7.47 6.08,13.55 13.55,13.55l30.84 -0c7.47,0 13.55,-6.08 13.55,-13.55l-0 -30.88c0.04,-7.43 -6.04,-13.51 -13.51,-13.51zm140.34 140.26l-102.72 0c-7.47,0 -13.55,6.08 -13.55,13.55l0 30.84c0,7.47 6.08,13.55 13.55,13.55l102.68 -0c7.47,0 13.55,-6.08 13.55,-13.55l0 -30.84c0.04,-7.47 -6.04,-13.55 -13.51,-13.55zm0 -70.11l-102.72 0c-7.47,0 -13.55,6.08 -13.55,13.55l0 30.84c0,7.47 6.08,13.55 13.55,13.55l102.68 0c7.47,0 13.55,-6.08 13.55,-13.55l0 -30.84c0.04,-7.47 -6.04,-13.55 -13.51,-13.55zm0 -70.15l-102.72 0c-7.47,0 -13.55,6.08 -13.55,13.55l0 30.84c0,7.47 6.08,13.55 13.55,13.55l102.68 -0c7.47,0 13.55,-6.08 13.55,-13.55l-0 -30.88c0.04,-7.43 -6.04,-13.51 -13.51,-13.51zm-140.34 140.26l-30.88 0c-7.47,0 -13.55,6.08 -13.55,13.55l0 30.84c0,7.47 6.08,13.55 13.55,13.55l30.84 -0c7.47,0 13.55,-6.08 13.55,-13.55l0 -30.84c0.04,-7.47 -6.04,-13.55 -13.51,-13.55zm0 -70.11l-30.88 0c-7.47,0 -13.55,6.08 -13.55,13.55l0 30.84c0,7.47 6.08,13.55 13.55,13.55l30.84 0c7.47,0 13.55,-6.08 13.55,-13.55l0 -30.84c0.04,-7.47 -6.04,-13.55 -13.51,-13.55z"/>
 </g>
</svg>
