<?xml version="1.0" encoding="iso-8859-1"?>
<!-- Generator: Adobe Illustrator 19.0.0, SVG Export Plug-In . SVG Version: 6.00 Build 0)  -->
<svg version="1.1" id="Layer_1" xmlns="http://www.w3.org/2000/svg" xmlns:xlink="http://www.w3.org/1999/xlink" x="0px" y="0px"
	viewBox="0 0 512 512" style="enable-background:new 0 0 512 512;" xml:space="preserve">
<g>
	<g>
		<path d="M478.382,297.701l33.391-200.348c0.807-4.842-0.557-9.791-3.73-13.536s-7.831-5.905-12.739-5.905H123.462L111,13.524
			C109.48,5.672,102.606,0,94.609,0H16.696C7.475,0,0,7.475,0,16.696s7.475,16.696,16.696,16.696h64.139L93.496,97.78
			c0,0,0,0.001,0,0.002l19.335,100.407l32.219,166.724c1.519,7.85,8.344,13.522,16.342,13.522h300.522
			c9.22,0,16.696-7.475,16.696-16.696s-7.475-16.696-16.696-16.696H175.165l-6.462-33.391h293.21
			C470.075,311.652,477.039,305.752,478.382,297.701z M162.239,278.261l-32.314-166.956h345.67L447.77,278.261H162.239z"/>
	</g>
</g>
<g>
	<g>
		<path d="M217.043,411.826c-27.618,0-50.087,22.469-50.087,50.087S189.426,512,217.043,512c27.618,0,50.087-22.469,50.087-50.087
			S244.661,411.826,217.043,411.826z M217.043,478.609c-9.206,0-16.696-7.49-16.696-16.696s7.49-16.696,16.696-16.696
			c9.206,0,16.696,7.49,16.696,16.696S226.249,478.609,217.043,478.609z"/>
	</g>
</g>
<g>
	<g>
		<path d="M406.261,411.826c-27.618,0-50.087,22.469-50.087,50.087S378.643,512,406.261,512s50.087-22.469,50.087-50.087
			S433.879,411.826,406.261,411.826z M406.261,478.609c-9.206,0-16.696-7.49-16.696-16.696s7.49-16.696,16.696-16.696
			s16.696,7.49,16.696,16.696S415.467,478.609,406.261,478.609z"/>
	</g>
</g>
<g>
	<g>
		<path d="M306.087,144.696c-9.22,0-16.696,7.475-16.696,16.696v66.783c0,9.22,7.475,16.696,16.696,16.696
			s16.696-7.475,16.696-16.696v-66.783C322.783,152.171,315.307,144.696,306.087,144.696z"/>
	</g>
</g>
<g>
	<g>
		<path d="M406.261,144.696c-9.22,0-16.696,7.475-16.696,16.696v66.783c0,9.22,7.475,16.696,16.696,16.696
			s16.696-7.475,16.696-16.696v-66.783C422.957,152.171,415.481,144.696,406.261,144.696z"/>
	</g>
</g>
<g>
	<g>
		<path d="M205.913,144.696c-9.22,0-16.696,7.475-16.696,16.696v66.783c0,9.22,7.475,16.696,16.696,16.696
			c9.22,0,16.696-7.475,16.696-16.696v-66.783C222.609,152.171,215.133,144.696,205.913,144.696z"/>
	</g>
</g>
</svg>
